<svg width="198" height="191" viewBox="0 0 198 191" fill="none" xmlns="http://www.w3.org/2000/svg">
<g clip-path="url(#clip0_78_672)">
<path d="M154.816 55.4392H130.95C119.097 55.4392 109.49 64.6587 109.49 76.0327C109.49 87.4067 119.097 96.6262 130.95 96.6262H138.94C150.793 96.6262 160.4 105.846 160.4 117.22C160.4 127.362 151.828 135.589 141.258 135.589H86.6879" stroke="#F18C2E" stroke-width="20" stroke-miterlimit="10"/>
<path d="M40.4136 138.023V58.4817C40.4136 57.5164 41.6459 57.1114 42.2186 57.8884L83.4603 113.849C83.8564 114.387 84.6578 114.393 85.0616 113.861L102.448 90.9741" stroke="#5E9AD2" stroke-width="20" stroke-miterlimit="10"/>
<path d="M47.4699 180.707H11.2054C10.6532 180.707 10.2054 180.259 10.2054 179.707V11.2931C10.2054 10.7408 10.6532 10.2931 11.2054 10.2931H116.357" stroke="#F18C2E" stroke-width="20" stroke-miterlimit="10"/>
<path d="M153.096 10.2931H186.795C187.347 10.2931 187.795 10.7408 187.795 11.2931V179.707C187.795 180.259 187.347 180.707 186.795 180.707H81.9205" stroke="#5E9AD2" stroke-width="20" stroke-miterlimit="10"/>
</g>
<defs>
<clipPath id="clip0_78_672">
<rect width="198" height="190" fill="white" transform="translate(0 0.5)"/>
</clipPath>
</defs>
</svg>
