<svg width="20" height="20" viewBox="0 0 20 20" fill="none" xmlns="http://www.w3.org/2000/svg">
<path d="M18.4583 16.125V7.375C18.4583 6.08634 17.4137 5.04167 16.125 5.04167H15.7361C15.2651 5.04167 14.8403 4.75848 14.6592 4.32372L13.7991 2.25962C13.618 1.82487 13.1932 1.54167 12.7222 1.54167H7.27777C6.80678 1.54167 6.38199 1.82487 6.20084 2.25962L5.3408 4.32372C5.15965 4.75848 4.73486 5.04167 4.26388 5.04167H3.87499C2.58633 5.04167 1.54166 6.08634 1.54166 7.375V16.125C1.54166 17.4137 2.58633 18.4583 3.87499 18.4583H16.125C17.4137 18.4583 18.4583 17.4137 18.4583 16.125Z" stroke="#233B52" stroke-width="1.5" stroke-linecap="round"/>
<path d="M13.7917 11.1667C13.7917 13.2608 12.0941 14.9583 9.99999 14.9583C7.90591 14.9583 6.20832 13.2608 6.20832 11.1667C6.20832 9.07259 7.90591 7.375 9.99999 7.375C12.0941 7.375 13.7917 9.07259 13.7917 11.1667Z" stroke="#233B52" stroke-width="1.5" stroke-linecap="round"/>
</svg>
