<svg width="20" height="20" viewBox="0 0 20 20" fill="none" xmlns="http://www.w3.org/2000/svg">
<path d="M10 19.0625C15.0051 19.0625 19.0625 15.0051 19.0625 10C19.0625 4.99492 15.0051 0.9375 10 0.9375M10 19.0625C4.99492 19.0625 0.9375 15.0051 0.9375 10C0.9375 4.99492 4.99492 0.9375 10 0.9375M10 19.0625C11.5533 19.0625 14.0625 15.625 14.0625 10C14.0625 4.375 11.5533 0.9375 10 0.9375M10 19.0625C8.4467 19.0625 5.9375 15.625 5.9375 10C5.9375 4.375 8.4467 0.9375 10 0.9375M1.25 10H18.75" stroke="#5E9AD2" stroke-width="1.5" stroke-linecap="round" stroke-linejoin="round"/>
</svg>
