<svg width="20" height="20" viewBox="0 0 20 20" fill="none" xmlns="http://www.w3.org/2000/svg">
<path d="M15 15.7165H14.3667C13.7 15.7165 13.0667 15.9748 12.6 16.4415L11.175 17.8498C10.525 18.4915 9.46668 18.4915 8.81668 17.8498L7.39166 16.4415C6.925 15.9748 6.28333 15.7165 5.625 15.7165H5C3.61667 15.7165 2.5 14.6082 2.5 13.2415V4.1415C2.5 2.77484 3.61667 1.6665 5 1.6665H15C16.3833 1.6665 17.5 2.77484 17.5 4.1415V13.2332C17.5 14.5998 16.3833 15.7165 15 15.7165Z" stroke="#5E9AD2" stroke-width="1.5" stroke-miterlimit="10" stroke-linecap="round" stroke-linejoin="round"/>
<path d="M10.0584 7.4585C10.0251 7.4585 9.97504 7.4585 9.93337 7.4585C9.05837 7.42516 8.3667 6.71683 8.3667 5.8335C8.3667 4.9335 9.09171 4.2085 9.99171 4.2085C10.8917 4.2085 11.6167 4.94183 11.6167 5.8335C11.6251 6.71683 10.9334 7.4335 10.0584 7.4585Z" stroke="#5E9AD2" stroke-width="1.5" stroke-linecap="round" stroke-linejoin="round"/>
<path d="M7.70833 9.9668C6.59999 10.7085 6.59999 11.9168 7.70833 12.6585C8.96666 13.5001 11.0333 13.5001 12.2917 12.6585C13.4 11.9168 13.4 10.7085 12.2917 9.9668C11.0333 9.13346 8.97499 9.13346 7.70833 9.9668Z" stroke="#5E9AD2" stroke-width="1.5" stroke-linecap="round" stroke-linejoin="round"/>
</svg>
